HIERARCHY
ROOT Hips
{
  OFFSET 0 0 0
  CHANNELS 6 Xposition Yposition Zposition Zrotation Yrotation Xrotation
  JOINT LeftThigh
  {
    OFFSET 8.409438 0 -5.917753
    CHANNELS 3 Zrotation Yrotation Xrotation
    JOINT LeftLeg
    {
      OFFSET 0 0 -42.358652
      CHANNELS 3 Zrotation Yrotation Xrotation
      JOINT LeftFoot
      {
        OFFSET 0 0 -39.357303
        CHANNELS 3 Zrotation Yrotation Xrotation
      }
    }
  }
  JOINT RightThigh
  {
    OFFSET -8.409438 0 -5.917753
    CHANNELS 3 Zrotation Yrotation Xrotation
    JOINT RightLeg
    {
      OFFSET 0 0 -42.358652
      CHANNELS 3 Zrotation Yrotation Xrotation
      JOINT RightFoot
      {
        OFFSET 0 0 -39.357303
        CHANNELS 3 Zrotation Yrotation Xrotation
      }
    }
  }
  JOINT SpineLow
  {
    OFFSET 0 0 4.719101
    CHANNELS 3 Zrotation Yrotation Xrotation
    JOINT SpineMid
    {
      OFFSET 0 0 12.899191
      CHANNELS 3 Zrotation Yrotation Xrotation
      JOINT Chest
      {
        OFFSET 0 0 12.899191
        CHANNELS 3 Zrotation Yrotation Xrotation
        JOINT LeftShoulder
        {
          OFFSET 7.550562 1.41573 9.438202
          CHANNELS 3 Zrotation Yrotation Xrotation
          JOINT LeftArm
          {
            OFFSET 9.155056 0 4.247191
            CHANNELS 3 Zrotation Yrotation Xrotation
            JOINT LeftForearm
            {
              OFFSET 0 0 25.771955
              CHANNELS 3 Zrotation Yrotation Xrotation
              JOINT LeftHand
              {
                OFFSET 0 0 25.197169
                CHANNELS 3 Zrotation Yrotation Xrotation
              }
            }
          }
        }
        JOINT RightShoulder
        {
          OFFSET -7.550562 1.41573 9.438202
          CHANNELS 3 Zrotation Yrotation Xrotation
          JOINT RightArm
          {
            OFFSET -9.155056 0 4.247191
            CHANNELS 3 Zrotation Yrotation Xrotation
            JOINT RightForearm
            {
              OFFSET 0 0 -25.771955
              CHANNELS 3 Zrotation Yrotation Xrotation
              JOINT RightHand
              {
                OFFSET 0 0 -25.197169
                CHANNELS 3 Zrotation Yrotation Xrotation
              }
            }
          }
        }
        JOINT Neck
        {
          OFFSET 0 0 15.101124
          CHANNELS 3 Zrotation Yrotation Xrotation
          JOINT Head
          {
            OFFSET 0 0 11.325843
            CHANNELS 3 Zrotation Yrotation Xrotation
            End Site
            {
              OFFSET 0 0 14.157303
            }
          }
        }
      }
    }
  }
}
MOTION
Frames: 10
Frame Time: 0.0
0.0  101.685394  0.0  1.122504  3.236313  -118.614606  21.607973  -22.083654  8.650599  -28.564161  22.123444  22.600735  -4.60892  2.747438  -0.321324  2.756071  -9.932544  -88.595365  32.597988  8.355689  114.882199  5.30542  -6.022799  5.409467  -3.450966  0.861144  4.22055  -9.255305  2.940624  11.393431  -9.255304  2.940624  11.393431  -2.084327  15.870241  15.401924  -143.281002  80.841006  -94.040656  -44.721801  -30.391123  80.8631  77.473475  9.505234  -6.171614  34.750631  0.982089  13.553929  140.843971  81.749771  93.3921  -44.082116  9.628612  -69.809646  96.400215  -23.374895  12.485248  4.419289  -1.15837  -1.424459  3.311675  -0.879138  -1.059996  
0.0  101.685394  0.0  1.058605  3.311032  -119.511668  20.974168  -22.038016  9.878006  -28.700849  21.766909  22.674005  -4.436874  2.778276  -0.36818  2.158294  -10.117485  -91.658977  32.718696  6.713649  113.641059  4.898014  -7.79115  5.860402  -3.438713  0.81173  4.172422  -9.232359  2.797595  11.269123  -9.232359  2.797595  11.269123  -1.507213  18.031053  17.079019  -165.205995  78.736147  -115.490514  -43.974762  -29.011973  83.962198  77.572421  9.443701  -5.019221  32.619563  -0.336398  16.676221  124.829258  81.509977  75.568654  -44.093127  10.782892  -72.774473  96.869961  -23.006367  11.787765  4.124888  -0.979575  -1.16527  3.091736  -0.742589  -0.867365  
0.0  101.685394  0.0  1.006632  3.451569  -120.164836  20.705222  -22.158406  10.854194  -29.319515  21.54782  22.491909  -4.400461  2.824831  -0.466123  1.425631  -10.260326  -94.914194  32.563006  5.062001  112.503243  4.394812  -9.410913  6.337407  -3.458606  0.715546  4.101959  -9.305403  2.529701  11.088557  -9.305403  2.529701  11.088558  -1.192594  20.749727  18.940665  -179.79782  75.922211  -129.764824  -42.707999  -28.171752  86.140525  78.879879  9.613986  -3.512173  30.568625  -1.243657  20.161409  111.10978  80.770645  60.177322  -43.159484  12.056678  -75.146595  96.810191  -22.400965  11.056946  3.881565  -0.614387  -1.096816  2.910055  -0.467781  -0.818741  
0.0  101.685394  0.0  0.983423  3.739312  -120.630743  20.181196  -21.951411  11.63599  -29.505119  21.277316  22.591261  -4.423206  2.930525  -0.54254  0.610337  -10.424761  -98.230103  32.284442  3.629267  111.403759  4.161692  -10.944259  6.867812  -3.458313  0.622928  4.114417  -9.319018  2.279595  11.134872  -9.319018  2.279595  11.134872  -1.193969  23.089351  20.676179  171.270174  72.686002  -137.766071  -40.83478  -27.661388  87.149977  80.573326  9.75453  -2.277163  27.943689  -0.973531  23.263683  97.591172  79.635374  44.442716  -41.453401  12.90634  -77.165331  95.377865  -21.487691  11.11142  3.463202  -0.317712  -1.587227  2.59659  -0.24729  -1.188662  
0.0  101.685394  0.0  0.987783  4.164962  -120.986834  19.625564  -21.734839  12.213188  -29.704778  21.178756  22.748719  -4.376514  3.014519  -0.575248  0.079721  -10.795437  -101.328221  32.272027  2.703733  110.086832  4.279603  -12.517569  7.590985  -3.416423  0.552214  4.153434  -9.214859  2.085737  11.252353  -9.214859  2.085737  11.252352  -1.820428  25.002462  21.86096  164.627887  69.367735  -143.597  -38.688992  -26.661856  87.234543  81.202625  9.785448  -1.686784  25.30486  -0.693806  25.701811  89.269718  77.048603  34.388728  -39.45426  12.780054  -78.909662  92.723071  -20.918449  12.929993  2.931753  -0.094911  -2.362359  2.198487  -0.082519  -1.771362  
0.0  101.685394  0.0  0.941322  4.60151  -121.119151  19.113173  -21.417195  12.412338  -29.825512  21.241474  23.079122  -4.309355  3.082879  -0.609175  -0.27952  -11.30709  -104.279015  32.270655  1.818338  108.719647  4.33786  -14.047057  8.25582  -3.341607  0.554444  4.194993  -9.009038  2.08477  11.368257  -9.009038  2.08477  11.368258  -2.843462  26.089311  22.74981  160.682088  65.902185  -146.722795  -36.466494  -24.435164  86.703958  81.683556  10.386898  -0.763974  22.784429  -0.924665  27.332713  86.368031  73.074104  29.862897  -37.170834  12.649729  -79.917704  89.66445  -20.213317  16.2171  2.325324  -0.081253  -3.393915  1.743605  -0.073857  -2.54517  
0.0  101.685394  0.0  0.788832  5.214822  -121.270879  18.594778  -21.193301  12.465277  -30.30977  21.507448  23.385493  -4.333091  3.067985  -0.740646  -0.951367  -11.548605  -106.921578  31.720155  0.83297  107.84935  4.483546  -15.317045  8.414192  -3.203977  0.595406  4.280478  -8.623849  2.183685  11.601607  -8.623848  2.183685  11.601607  -4.657378  26.55712  23.329859  157.280319  62.996033  -149.000624  -35.197299  -21.215474  85.788774  82.319743  12.538209  0.140773  20.120811  -1.685667  28.472941  86.445219  68.719538  28.454585  -34.8417  13.327415  -80.405047  87.95674  -19.775689  18.932378  1.513352  -0.131296  -4.495211  1.134121  -0.109611  -3.371107  
0.0  101.685394  0.0  0.64074  5.593404  -121.404227  18.446881  -21.16123  12.30108  -30.738753  21.946322  23.890291  -4.146143  3.068543  -0.830244  -1.499463  -11.684531  -109.109179  29.987837  1.939426  107.336307  6.264111  -15.375491  8.877636  -3.337765  0.751425  4.385581  -8.957253  2.645086  11.863357  -8.957253  2.645085  11.863356  -4.840383  26.814567  23.64003  153.777353  60.482351  -151.457091  -39.683244  -14.463912  89.804304  76.393667  18.158204  -7.714352  19.853082  -2.931841  29.370353  86.020747  65.336172  25.815893  -37.965159  0.631745  -83.043267  98.287788  -22.841692  17.50168  1.92518  -0.223779  -5.39499  1.442041  -0.184849  -4.04558  
0.0  101.685394  0.0  0.593038  5.581267  -121.596712  18.873579  -21.440132  12.053642  -31.299891  22.60617  24.401854  -4.349337  2.944396  -1.080345  -2.262302  -8.853073  -113.603399  28.529323  -0.888388  109.486751  6.670682  -18.460132  8.319668  -3.755354  0.94667  4.466355  -10.057456  3.261617  12.036418  -10.057457  3.261617  12.036418  -2.30456  28.029398  24.497386  150.914439  57.809263  -152.3856  -44.156279  -14.297566  93.154153  78.037148  19.777185  -10.391826  21.503655  -3.841898  30.799885  82.591974  64.096265  20.774532  -38.042011  2.633123  -84.405794  88.62289  -18.467233  25.973763  3.5391  -0.142144  -5.868605  2.653249  -0.140615  -4.400803  
0.0  101.685394  0.0  0.608905  5.176751  -121.088559  19.888728  -21.72244  10.957374  -31.83372  23.337385  24.843453  -4.13954  2.935406  -1.146326  -1.550056  -12.560132  -112.589418  30.06556  -1.484416  107.192305  5.968408  -18.212195  7.076814  -4.06807  1.033206  4.472526  -10.894615  3.553685  12.022255  -10.894614  3.553685  12.022254  -0.563469  29.650716  24.171405  150.386393  58.882121  -152.182514  -44.822975  -19.729216  91.848846  80.82192  16.992253  -9.718593  22.522906  -4.251263  32.082286  69.780148  65.109718  8.166259  -39.196749  8.189669  -84.713425  86.591264  -14.921776  30.820687  4.830328  0.045795  -6.286506  3.623672  -0.015348  -4.715591  
